<svg class="injected-svg" id="svg-d5f0f635-8463-47d5-85a7-9588b80c9a15" height="100%" width="100%" viewBox="0 0 540 508" xmlns="http://www.w3.org/2000/svg"><g xmlns="http://www.w3.org/2000/svg" fill="#78ba52" id="icon-svg">
	<path transform="translate(190, 86) scale(0.8,0.8)" d="M 151.775 4.559 C 148.268 6.462, 147 8.916, 147 13.798 C 147 16.710, 147.682 18.410, 149.636 20.364 C 152.258 22.986, 152.359 23, 167.886 23.015 C 185.543 23.031, 187.894 23.682, 189.625 29.026 C 190.474 31.649, 191.384 32.577, 193.340 32.813 C 199.062 33.505, 196.933 22.760, 190.580 18.886 C 187.913 17.259, 185.397 17.007, 171.821 17.004 C 158.913 17.001, 155.866 16.723, 154.573 15.431 C 153.403 14.260, 153.262 13.380, 154.016 11.969 C 154.870 10.374, 156.396 10.032, 163.764 9.789 C 172.115 9.513, 172.515 9.395, 172.837 7.113 C 173.023 5.800, 172.573 4.345, 171.837 3.878 C 169.551 2.429, 154.776 2.930, 151.775 4.559 M 25.305 8.418 C 23.548 9.209, 20.123 11.689, 17.693 13.929 C 15.264 16.168, 12.555 18, 11.673 18 C 9.285 18, 2.896 24.005, 1.351 27.702 C -1.745 35.112, 1.083 45.440, 7.054 48.528 C 9.622 49.856, 13.914 50.051, 34.981 49.799 L 59.872 49.500 62.924 46.575 C 64.602 44.966, 66.248 42.197, 66.581 40.422 C 67.401 36.051, 64.527 30.243, 60.313 27.757 C 58.392 26.624, 56.718 24.676, 56.351 23.147 C 55.150 18.139, 52.011 13.110, 48.338 10.308 C 45.106 7.842, 43.675 7.468, 36.579 7.239 C 31.190 7.065, 27.436 7.458, 25.305 8.418 M 31.836 13.944 C 27.528 14.783, 23.475 17.221, 20 21.066 C 18.625 22.587, 15.805 24.357, 13.733 24.999 C 7.434 26.951, 4.736 35.981, 8.910 41.139 C 10.786 43.459, 11.177 43.506, 31.160 43.831 C 52.978 44.185, 58.409 43.438, 59.523 39.929 C 60.423 37.093, 57.514 33, 54.599 33 C 51.471 33, 50.389 31.443, 49.566 25.755 C 48.716 19.881, 45.137 15.410, 40.186 14.035 C 38.159 13.472, 36.275 13.060, 36 13.121 C 35.725 13.181, 33.851 13.551, 31.836 13.944 M 120.230 14.250 C 119.671 14.938, 112.153 29.337, 103.522 46.250 C 94.891 63.163, 87.695 77, 87.531 77 C 87.366 77, 84.877 71.487, 81.998 64.750 C 79.119 58.013, 76.294 51.916, 75.719 51.202 C 72.926 47.729, 70.843 50.436, 58.948 73 C 52.425 85.375, 46.730 95.492, 46.294 95.482 C 45.857 95.472, 43.118 94.860, 40.208 94.122 C 26.102 90.546, 10.712 98.089, 3.293 112.216 C 0.858 116.852, 0.518 118.603, 0.514 126.500 C 0.511 133.580, 0.965 136.486, 2.642 140.122 C 6.864 149.273, 15.669 156.629, 25.308 159.056 L 29.955 160.226 30.227 177.755 C 30.462 192.837, 30.733 195.431, 32.166 196.334 C 33.374 197.096, 34.268 197.023, 35.416 196.070 C 36.750 194.963, 37 192.013, 37 177.378 L 37 160 54.977 160 L 72.954 160 73.227 177.642 C 73.462 192.829, 73.732 195.430, 75.166 196.334 C 76.374 197.096, 77.268 197.023, 78.416 196.070 C 79.750 194.963, 80 192.013, 80 177.378 L 80 160 99.965 160 C 117.960 160, 120.021 159.827, 120.854 158.250 C 121.552 156.927, 118.038 147.832, 106.459 121 L 91.140 85.500 96.318 75.699 L 101.497 65.899 104.346 69.449 C 107.747 73.690, 110.401 73.948, 114.106 70.399 L 116.821 67.797 118.526 70.399 C 120.675 73.679, 123.648 73.711, 127.011 70.489 L 129.632 67.979 131.990 70.489 C 135.147 73.849, 136.972 73.656, 140.962 69.539 C 142.807 67.635, 144.649 66.283, 145.054 66.534 C 145.460 66.784, 156.272 87.070, 169.081 111.613 C 181.890 136.155, 193.117 157.158, 194.029 158.285 C 195.763 160.426, 198.620 160.155, 199.538 157.761 C 199.809 157.055, 196.493 149.733, 192.169 141.489 C 187.845 133.245, 171.131 101.300, 155.028 70.500 C 138.924 39.700, 125.243 14.169, 124.624 13.765 C 122.951 12.672, 121.370 12.846, 120.230 14.250 M 113.718 42.569 C 108.923 51.682, 105.015 59.445, 105.033 59.819 C 105.052 60.194, 105.967 61.582, 107.068 62.904 L 109.070 65.308 111.840 62.654 C 115.281 59.356, 116.693 59.332, 120.011 62.511 L 122.632 65.021 124.990 62.511 C 126.287 61.130, 128.092 60, 129 60 C 129.908 60, 131.713 61.130, 133.010 62.511 L 135.368 65.021 138.136 62.370 L 140.903 59.719 132.202 42.882 C 127.416 33.622, 123.261 26.035, 122.968 26.023 C 122.675 26.010, 118.513 33.456, 113.718 42.569 M 62.767 80.714 L 53.033 99.269 57.172 103.384 C 63.659 109.834, 66.498 116.873, 66.498 126.500 C 66.498 135.830, 63.761 142.938, 57.498 149.870 L 53.767 154 63.384 154 L 73 154 73 150.687 C 73 148.302, 72.149 146.559, 69.960 144.462 C 66.627 141.268, 66.331 137.743, 69.349 137.168 C 70.366 136.974, 72.420 137.987, 73.915 139.418 L 76.632 142.021 78.990 139.511 C 81.645 136.685, 85.479 136.199, 86.389 138.572 C 87.134 140.513, 85.973 142.762, 82.592 145.924 C 80.986 147.426, 80 149.424, 80 151.174 L 80 154 96 154 C 106.474 154, 112 153.639, 112 152.953 C 112 151.699, 74.121 63.793, 73.165 62.830 C 72.799 62.461, 68.120 70.509, 62.767 80.714 M 25 101.477 C 7.131 107.263, 1.180 130.209, 13.891 144.311 C 17.197 147.978, 25.737 152.967, 28.750 152.990 C 31.699 153.013, 29.794 148.222, 24.963 143.464 C 19.735 138.314, 18.994 135.648, 22.230 133.620 C 23.660 132.724, 24.791 133.355, 28.754 137.257 L 33.547 141.979 38.180 137.346 C 41.298 134.228, 43.341 132.917, 44.429 133.334 C 47.947 134.684, 47.334 137.098, 42.137 142.361 C 38.557 145.987, 37 148.365, 37 150.212 C 37 152.695, 37.192 152.805, 40.084 151.976 C 53.574 148.107, 62.146 134.116, 59.018 121.074 C 55.359 105.824, 39.604 96.747, 25 101.477 M 0.667 187.667 C 0.300 188.033, 0 189.778, 0 191.544 C 0 195.471, 2.411 197.861, 4.834 196.335 C 8.332 194.132, 7.425 187, 3.648 187 C 2.375 187, 1.033 187.300, 0.667 187.667 M 13.446 189.358 C 12.598 192.738, 13.175 195.081, 15.166 196.335 C 17.837 198.017, 20.161 195.385, 19.801 191.086 C 19.544 188.019, 19.107 187.455, 16.785 187.187 C 14.602 186.935, 13.948 187.361, 13.446 189.358 M 43.446 189.358 C 42.598 192.738, 43.175 195.081, 45.166 196.335 C 47.837 198.017, 50.161 195.385, 49.801 191.086 C 49.544 188.019, 49.107 187.455, 46.785 187.187 C 44.602 186.935, 43.948 187.361, 43.446 189.358 M 60.667 187.667 C 60.300 188.033, 60 189.778, 60 191.544 C 60 195.471, 62.411 197.861, 64.834 196.335 C 68.332 194.132, 67.425 187, 63.648 187 C 62.375 187, 61.033 187.300, 60.667 187.667 M 87.709 187.624 C 86.336 188.998, 86.948 195.766, 88.500 196.362 C 91.634 197.564, 93.116 195.932, 92.801 191.623 C 92.563 188.356, 92.076 187.439, 90.459 187.208 C 89.336 187.047, 88.099 187.235, 87.709 187.624 M 100.667 187.667 C 100.300 188.033, 100 189.778, 100 191.544 C 100 195.471, 102.411 197.861, 104.834 196.335 C 108.332 194.132, 107.425 187, 103.648 187 C 102.375 187, 101.033 187.300, 100.667 187.667 M 113.446 189.358 C 112.598 192.738, 113.175 195.081, 115.166 196.335 C 117.837 198.017, 120.161 195.385, 119.801 191.086 C 119.544 188.019, 119.107 187.455, 116.785 187.187 C 114.602 186.935, 113.948 187.361, 113.446 189.358 M 127.709 187.624 C 126.336 188.998, 126.948 195.766, 128.500 196.362 C 131.634 197.564, 133.116 195.932, 132.801 191.623 C 132.563 188.356, 132.076 187.439, 130.459 187.208 C 129.336 187.047, 128.099 187.235, 127.709 187.624 M 140.667 187.667 C 140.300 188.033, 140 189.778, 140 191.544 C 140 195.471, 142.411 197.861, 144.834 196.335 C 148.332 194.132, 147.425 187, 143.648 187 C 142.375 187, 141.033 187.300, 140.667 187.667 M 153.446 189.358 C 152.598 192.738, 153.175 195.081, 155.166 196.335 C 157.837 198.017, 160.161 195.385, 159.801 191.086 C 159.544 188.019, 159.107 187.455, 156.785 187.187 C 154.602 186.935, 153.948 187.361, 153.446 189.358 M 167.709 187.624 C 166.336 188.998, 166.948 195.766, 168.500 196.362 C 171.634 197.564, 173.116 195.932, 172.801 191.623 C 172.563 188.356, 172.076 187.439, 170.459 187.208 C 169.336 187.047, 168.099 187.235, 167.709 187.624 M 180.667 187.667 C 180.300 188.033, 180 189.778, 180 191.544 C 180 195.471, 182.411 197.861, 184.834 196.335 C 188.332 194.132, 187.425 187, 183.648 187 C 182.375 187, 181.033 187.300, 180.667 187.667 M 193.446 189.358 C 192.598 192.738, 193.175 195.081, 195.166 196.335 C 197.837 198.017, 200.161 195.385, 199.801 191.086 C 199.544 188.019, 199.107 187.455, 196.785 187.187 C 194.602 186.935, 193.948 187.361, 193.446 189.358" stroke="none" fill-rule="evenodd"></path>
</g><path xmlns="http://www.w3.org/2000/svg" id="SvgjsPath79235" d="M7.58 2.27Q7.28 2.20 7 1.90Q6.73 1.60 6.75 1.35L6.75 1.35Q7 0.40 7.05 0.03L7.05 0.03Q7.20-0.73 7.33-1.07L7.33-1.07L5.38-2.10Q4.70-2.60 3.94-3.51Q3.18-4.42 3-5.38L3-5.38Q2.88-5.95 2.88-6.55L2.88-6.55Q2.88-7.98 3.46-9.55Q4.05-11.13 5.05-12.33L5.05-12.33Q5.70-13.05 7.03-13.93L7.03-13.93L7.80-14.48Q7.95-14.60 8.47-14.84Q9-15.08 9.33-15.20L9.33-15.20Q9.55-15.20 9.98-15.28L9.98-15.28Q11.05-15.40 11.28-15.40L11.28-15.40L12.05-15.35Q12.23-15.35 12.35-15.88Q12.48-16.40 12.60-17.35L12.60-17.35Q12.65-17.53 12.70-17.93L12.70-17.93Q12.70-18.13 12.86-18.24Q13.03-18.35 13.25-18.30L13.25-18.30Q13.50-18.25 13.83-17.98Q14.15-17.70 14.13-17.53L14.13-17.53Q14.13-17.48 14.18-17.32Q14.23-17.18 14.15-17.05L14.15-17.05L13.65-15.15Q13.60-15.03 13.69-15Q13.78-14.98 13.80-15L13.80-15L13.83-15.03Q13.98-15.10 14.13-15.10L14.13-15.10Q14.40-15.10 14.63-14.75L14.63-14.75Q14.88-14.40 16.15-13.68L16.15-13.68Q16.90-13.15 17.23-12.85Q17.55-12.55 17.76-12.05Q17.98-11.55 18.10-10.63L18.10-10.63Q18.13-10.30 18.13-9.80L18.13-9.80Q18.13-9.20 18.06-8.83Q18-8.45 17.80-7.73L17.80-7.73L17.65-7.18Q17.38-6.68 17.15-6.15L17.15-6.15Q16.78-5.35 16.44-4.85Q16.10-4.35 15.25-3.50L15.25-3.50Q15-3.23 14.65-2.93Q14.30-2.63 14.15-2.50L14.15-2.50Q13.63-2.02 12.29-1.53Q10.95-1.03 10.23-1.03L10.23-1.03Q9.85-1.03 9.63-1L9.63-1Q8.93-1 8.80-0.98L8.80-0.98L8.68-1.07Q8.68-0.18 8.22 2.05L8.22 2.05Q8.08 2.33 7.78 2.33L7.78 2.33L7.58 2.27ZM7.60-2.40Q7.68-2.33 7.68-2.55L7.68-2.55Q7.73-2.95 7.85-3.64Q7.98-4.33 8.10-4.60L8.10-4.60Q8.10-4.67 9.05-7.36Q10-10.05 10.50-11.23L10.50-11.23Q10.60-11.43 11.15-12.70Q11.70-13.98 11.60-13.98L11.60-13.98Q11.48-14 11.25-14L11.25-14Q10.85-14 10-13.80L10-13.80Q8.88-13.55 6.95-12.03L6.95-12.03Q6.03-11.30 5.63-10.45L5.63-10.45Q4.42-8.20 4.42-7.10L4.42-7.10Q4.30-6.70 4.30-6.23L4.30-6.23Q4.30-5.63 4.48-5.18Q4.65-4.73 4.93-4.30L4.93-4.30Q5.63-3.10 6.60-2.76Q7.58-2.43 7.60-2.40L7.60-2.40ZM9.20-2.43Q9.20-2.38 9.50-2.38L9.50-2.38Q9.80-2.38 10.15-2.43Q10.50-2.48 10.65-2.55L10.65-2.55Q10.75-2.60 11.19-2.71Q11.63-2.83 12.03-3L12.03-3Q13.30-3.50 14.20-4.55Q15.10-5.60 15.90-7.08L15.90-7.08Q16.18-7.63 16.63-9.43L16.63-9.43Q16.75-10 16.75-10.13L16.75-10.13Q16.75-10.30 16.73-10.38L16.73-10.38Q16.68-10.55 16.65-10.76Q16.63-10.98 16.63-11.08L16.63-11.08Q16.53-12 15.73-12.50L15.73-12.50Q14.70-13.13 14.29-13.34Q13.88-13.55 13.08-13.83L13.08-13.83Q13.03-13.55 12.94-13.26Q12.85-12.98 12.68-12.55L12.68-12.55L12.20-11.33Q11.88-10.63 11.03-8.31Q10.18-6 9.98-5.30L9.98-5.30L9.75-4.67Q9.45-3.83 9.40-3.40L9.40-3.40Q9.28-3.05 9.20-2.43L9.20-2.43ZM32.35 1.20Q32.35 1.30 32.18 1.30L32.18 1.30Q32.05 1.30 31.88 1.20Q31.70 1.10 31.60 0.93L31.60 0.93Q31.40 0.50 31.40-0.13L31.40-0.13L31.43-1.15Q32.20-5.70 33.25-10.30L33.25-10.30Q33.60-11.53 33.84-12.63Q34.08-13.73 34.13-14.03L34.13-14.03Q34.13-14.10 33.99-13.96Q33.85-13.83 33.73-13.64Q33.60-13.45 33.63-13.38L33.63-13.38L33-12.45Q32.85-12.30 32.30-11.30L32.30-11.30Q31.93-10.50 31.63-10.05L31.63-10.05L30.93-8.72Q30.15-7.30 29.98-7L29.98-7Q29.73-6.63 29.25-5.70L29.25-5.70Q29-5.10 28.35-4.28L28.35-4.28Q28.15-4 27.96-3.68Q27.78-3.35 27.73-3.25L27.73-3.25Q27.73-3.13 27.21-2.40Q26.70-1.68 26.28-1.20L26.28-1.20Q25.70-0.60 25.33-0.34Q24.95-0.08 24.63-0.08L24.63-0.08Q24.20-0.08 23.70-0.55L23.70-0.55Q23.38-0.90 23.24-1.38Q23.10-1.85 23.10-2.55L23.10-2.55Q23.10-3.18 23.28-4.65L23.28-4.65Q23.30-4.78 23.75-7.33L23.75-7.33Q24.23-9.90 24.33-10.15L24.33-10.15Q24.35-10.30 24.35-10.50L24.35-10.50Q24.35-10.73 24.28-10.73L24.28-10.73Q24.20-10.73 24-10.40L24-10.40Q23.93-10.30 23.11-9Q22.30-7.70 21.38-5.68L21.38-5.68Q19.93-3 19.23-1.66Q18.53-0.33 18.20 0.25L18.20 0.25Q17.78 1.07 17.70 1.15L17.70 1.15Q17.33 1.15 16.75 0.53L16.75 0.53Q16.68 0.38 16.68 0.25L16.68 0.25Q16.68 0.08 16.84-0.33Q17-0.73 17.30-1.38L17.30-1.38Q18.08-2.90 18.33-3.10L18.33-3.10Q18.63-3.50 18.68-3.98L18.68-3.98Q19-4.42 19.60-5.60L19.60-5.60Q19.98-6.20 20.49-7.10Q21-8 21.40-8.83L21.40-8.83L22.10-10.05Q23.08-11.75 23.66-12.68Q24.25-13.60 24.55-13.90L24.55-13.90Q24.95-14.38 24.95-14.65L24.95-14.65Q24.95-15.18 25.16-15.61Q25.38-16.05 25.60-16L25.60-16Q25.90-16 26.09-15.94Q26.28-15.88 26.48-15.63L26.48-15.63Q26.53-15.55 26.64-15.39Q26.75-15.23 26.81-15.04Q26.88-14.85 26.88-14.58L26.88-14.58Q26.88-14.28 26.80-13.83L26.80-13.83Q26.78-13.50 26.60-12.35L26.60-12.35Q26.50-11.80 26.50-11.68L26.50-11.68Q25.85-9.70 25.34-6.74Q24.83-3.78 24.83-2.58L24.83-2.58Q24.83-2.30 24.88-2.20L24.88-2.20Q25.05-2.08 25.19-2.18Q25.33-2.27 25.60-2.83L25.60-2.83Q25.93-3.43 26.70-4.38L26.70-4.38Q26.75-4.45 27.68-6.03L27.68-6.03Q29.98-9.80 32.15-13.60L32.15-13.60L32.80-14.63Q33.18-15.23 33.52-15.74Q33.88-16.25 34.08-16.40L34.08-16.40Q34.33-16.60 34.55-16.60L34.55-16.60Q35.03-16.60 35.40-16.03Q35.78-15.45 35.78-14.58L35.78-14.58Q35.78-13.90 35.50-12.51Q35.23-11.13 34.77-9.73L34.77-9.73Q34.63-9.03 34.35-7.98Q34.08-6.93 33.77-6.08L33.77-6.08Q33.73-5.65 33.58-5L33.58-5Q33.55-4.88 33.44-4.24Q33.33-3.60 33.38-3.38L33.38-3.38Q33-2.70 33-0.68L33-0.68L32.93-0.10Q32.88 0.60 32.83 0.85Q32.77 1.10 32.68 1.07L32.68 1.07Q32.63 1.05 32.52 1.05L32.52 1.05Q32.35 1.05 32.35 1.20L32.35 1.20ZM36.48 0.93Q36.35 1 36.18 1L36.18 1Q35.80 1 35.43 0.70Q35.05 0.40 35.03 0.03L35.03 0.03Q35.20-0.43 35.68-0.43L35.68-0.43Q35.83-0.43 36.03-0.63L36.03-0.63Q36.35-0.95 36.83-1.45Q37.30-1.95 37.38-2.02L37.38-2.02Q38.08-2.80 39.15-4.30L39.15-4.30Q39.43-4.70 40.10-5.88L40.10-5.88Q40.18-6 40.30-6.25Q40.43-6.50 40.56-6.68Q40.70-6.85 40.88-6.98L40.88-6.98Q40.95-7.43 41-7.54Q41.05-7.65 41.15-7.73Q41.25-7.80 41.30-7.83L41.30-7.83L41.23-8.03Q41.63-8.75 41.98-9.53L41.98-9.53Q42.20-10.15 42.45-10.65L42.45-10.65Q42.50-10.80 42.65-10.89Q42.80-10.98 42.80-11.13L42.80-11.13Q42.78-11.45 43.90-13.88L43.90-13.88Q44-14.13 44.20-14.53L44.20-14.53Q43.58-14.53 42.60-14L42.60-14L41.98-13.68Q41.58-13.48 41.26-13.35Q40.95-13.23 40.70-13.23L40.70-13.23Q40.45-13.23 40.15-13.33L40.15-13.33Q39.98-13.65 39.98-14.03L39.98-14.03Q39.98-14.70 40.50-14.90L40.50-14.90Q43.40-16 43.30-15.93L43.30-15.93Q44.58-16.25 45.60-16.65L45.60-16.65Q45.98-16.68 46.81-16.78Q47.65-16.88 47.75-16.95L47.75-16.95Q48.25-16.98 48.78-16.82Q49.30-16.68 49.35-16.50L49.35-16.50Q49.40-16.35 49.59-16.23Q49.78-16.10 49.83-15.98L49.83-15.98Q49.68-15.88 49.56-15.73Q49.45-15.58 49.45-15.48L49.45-15.48Q49.45-15.35 49.60-15.35L49.60-15.35Q49.73-15.35 49.83-15.38L49.83-15.38Q49.98-15.38 50.19-15.13Q50.40-14.88 50.48-14.65L50.48-14.65L50.50-14.43Q50.50-13.98 50.33-13.14Q50.15-12.30 49.95-11.59Q49.75-10.88 49.70-10.88L49.70-10.88Q49.68-10.68 49.58-10.28L49.58-10.28Q49.43-9.73 49.40-9.45L49.40-9.45Q49.43-9.38 49.08-8.25L49.08-8.25Q48.78-7.18 48.80-7.18L48.80-7.18Q48.70-6.40 48.38-5.36Q48.05-4.33 47.53-2.83L47.53-2.83Q47.40-2.48 47.16-1.78Q46.93-1.07 46.83-0.68L46.83-0.68Q46.75-0.55 46.64-0.24Q46.53 0.08 46.38 0.23L46.38 0.23Q46.05 0.55 45.70 0.55L45.70 0.55L45.50 0.50Q45 0.30 44.85-0.23L44.85-0.23Q45.10-0.85 45.56-2.08Q46.03-3.30 46.30-4.10L46.30-4.10Q46.33-4.20 46.54-5.24Q46.75-6.28 47.08-6.83L47.08-6.83Q47.10-6.95 47.19-7.51Q47.28-8.08 47.45-8.68L47.45-8.68L47.63-9.40Q47.85-10.35 47.95-10.68L47.95-10.68L48.45-12.95Q48.53-13.20 48.61-13.85Q48.70-14.50 48.75-15.10L48.75-15.10Q48.63-15.23 48.73-15.38L48.73-15.38Q47.63-15.38 46.18-15.10L46.18-15.10Q46-15.08 45.88-14.96Q45.75-14.85 45.70-14.68L45.70-14.68Q45.68-14.45 45.14-13.14Q44.60-11.83 44.30-11.28L44.30-11.28Q43.78-10.28 43.40-9.38L43.40-9.38L43.15-8.83Q42.90-8.05 42-6.33Q41.10-4.60 40.43-3.53L40.43-3.53Q39.45-2.15 38.30-0.75L38.30-0.75Q37.93-0.28 37.36 0.25Q36.80 0.78 36.48 0.93L36.48 0.93ZM55.03-0.40Q54.03-0.40 53.26-0.71Q52.50-1.03 52.55-1.45L52.55-1.45Q52.58-1.73 52.64-1.81Q52.70-1.90 52.90-1.90L52.90-1.90L53.43-1.85Q53.98-1.75 54.33-1.75L54.33-1.75Q55.45-1.75 56.63-2.18Q57.80-2.60 58.40-3.20L58.40-3.20Q59-3.78 59-4.40L59-4.40Q59-5.10 58.23-5.63L58.23-5.63Q57.75-5.95 56.78-6.23Q55.80-6.50 55.28-6.45L55.28-6.45Q55.20-6.43 55.08-6.43L55.08-6.43Q54.83-6.43 54.45-6.65L54.45-6.65Q54.23-6.90 54-7.35L54-7.35Q53.98-7.48 54.14-7.60Q54.30-7.73 54.93-8.09Q55.55-8.45 56.55-8.97L56.55-8.97Q58.08-9.83 58.74-10.24Q59.40-10.65 59.78-10.95L59.78-10.95Q59.98-11.20 60.10-11.40Q60.23-11.60 60.23-11.70L60.23-11.70Q60.23-11.80 60.08-11.88Q59.93-11.95 59.58-12.03L59.58-12.03Q58.85-12.10 58.25-12.10L58.25-12.10Q57.80-12.10 57.80-12.03L57.80-12.03L57.70-12.03Q57.53-12.10 56.74-11.93Q55.95-11.75 55.93-11.65L55.93-11.65Q55.90-11.58 55.40-11.40Q54.90-11.23 54.78-11.23L54.78-11.23Q54.58-11.28 54.34-11.70Q54.10-12.13 54.18-12.30L54.18-12.30Q54.25-12.53 55.73-13.23L55.73-13.23Q56.20-13.35 57.31-13.41Q58.43-13.48 58.95-13.43L58.95-13.43Q61.20-13.18 61.50-11.55L61.50-11.55Q61.58-11.30 61.58-11.10L61.58-11.10Q61.58-10.83 61.39-10.59Q61.20-10.35 60.63-9.83L60.63-9.83L60.03-9.43Q59.20-8.90 58.40-8.45L58.40-8.45Q58.35-8.40 57.78-8.03L57.78-8.03Q57.13-7.63 57.13-7.55L57.13-7.55Q57.18-7.50 57.36-7.39Q57.55-7.28 57.75-7.10L57.75-7.10Q58.40-6.88 59-6.36Q59.60-5.85 59.93-5.40L59.93-5.40Q60.23-4.73 60.23-4.10L60.23-4.10Q60.23-3.30 59.76-2.61Q59.30-1.93 58.38-1.38L58.38-1.38Q57.70-1 56.78-0.73Q55.85-0.45 55.03-0.40L55.03-0.40ZM67.20-0.53Q66.92-0.53 66.28-0.88Q65.63-1.23 65.25-1.55L65.25-1.55Q64.55-2.23 64.14-3.26Q63.73-4.30 63.73-5.38L63.73-5.38Q63.73-5.60 63.78-6.10L63.78-6.10Q64.05-7.68 64.96-9.24Q65.88-10.80 67.10-11.85L67.10-11.85Q67.75-12.43 68.29-12.74Q68.83-13.05 69.55-13.23L69.55-13.23Q69.90-13.33 70.65-13.33L70.65-13.33Q71.13-13.33 71.64-13.13Q72.15-12.93 72.50-12.64Q72.85-12.35 72.85-12.10L72.85-12.10Q72.85-11.88 72.81-11.83Q72.78-11.78 72.60-11.85L72.60-11.85L72.35-11.85L72.60-11.13Q72.70-10.90 72.78-10.58Q72.85-10.25 72.85-9.98L72.85-9.98Q72.85-9.53 72.58-8.24Q72.30-6.95 72.10-6.50L72.10-6.50Q72-6.30 72-5.98L72-5.98L71.38-4.60Q71.28-4.53 71.23-4.42Q71.18-4.33 71.25-4.25L71.25-4.25Q71.25-4.15 70.99-3.69Q70.73-3.23 70.65-3.23L70.65-3.23Q70.63-3.23 70.58-3.21Q70.53-3.20 70.53-3.13L70.53-3.13Q70.53-3.03 70.19-2.60Q69.85-2.18 69.42-1.75L69.42-1.75Q69.05-1.35 68.31-0.94Q67.58-0.53 67.20-0.53L67.20-0.53ZM67.13-2.10Q67.73-2.10 68.08-2.45L68.08-2.45Q68.55-2.78 69.14-3.46Q69.73-4.15 70-4.78L70-4.78Q70.25-5.13 70.41-5.50Q70.58-5.88 70.95-6.98L70.95-6.98Q71.13-7.23 71.21-7.61Q71.30-8 71.30-8.33L71.30-8.33Q71.30-9.43 71.43-9.88L71.43-9.88Q71.43-10.58 71.40-10.76Q71.38-10.95 71.20-11.15L71.20-11.15Q70.93-11.38 70.60-11.38L70.60-11.38Q70.43-11.38 69.95-11.19Q69.48-11 69.28-10.88L69.28-10.88Q69.13-10.83 69.05-10.83L69.05-10.83Q68.90-10.83 68.79-10.89Q68.67-10.95 68.67-11.05L68.67-11.05Q68.67-11.23 68.53-11.23L68.53-11.23Q68.33-11.23 67.98-10.93Q67.63-10.63 67.23-10.15L67.23-10.15Q66.83-9.75 66.49-9.26Q66.15-8.78 66.15-8.68L66.15-8.68Q66.15-8.60 66.06-8.40Q65.98-8.20 65.92-8.08L65.92-8.08Q65.75-7.80 65.45-7.11Q65.15-6.43 65.08-6.13L65.08-6.13L65.08-4.78Q65.08-4.15 65.15-3.80Q65.23-3.45 65.42-3.08L65.42-3.08Q65.53-2.90 65.75-2.65Q65.98-2.40 66.03-2.33L66.03-2.33Q66.20-2.15 66.31-2.09Q66.42-2.02 66.60-2.02L66.60-2.02Q66.80-2.02 67.13-2.10L67.13-2.10Z" fill="#000000" fontsize="25" transform="matrix(1,0,0,1,234.635,357.4928125)"></path><path xmlns="http://www.w3.org/2000/svg" id="SvgjsPath79229" d="M-2.31-66.67Q-2.94-66.15-2.94-62.58L-2.94-62.58L-2.83-57.64Q-2.83-57.33-2.57-56.91Q-2.31-56.49-2.10-56.49L-2.10-56.49Q0-56.38 4.04-56.49Q8.08-56.59 8.71-56.59L8.71-56.59Q9.34-56.59 9.45-55.18Q9.55-53.76 9.55-53.23L9.55-53.23Q9.55-46.62 9.66-27.51Q9.76-8.40 9.97-2.31L9.97-2.31Q9.97 0 12.18 0L12.18 0Q17.01 0 19.43-0.10L19.43-0.10Q20.58-0.10 20.58-1.26L20.58-1.26L20.58-39.27L20.58-55.02L20.58-55.34Q20.58-56.17 21.63-56.17L21.63-56.17L25.09-56.28Q28.14-56.49 29.71-56.38L29.71-56.38Q32.76-56.38 33.18-59.11L33.18-59.11Q33.28-59.74 33.28-61.11L33.28-61.11Q33.28-61.63 33.23-62.47Q33.18-63.31 33.28-64.47L33.28-64.47L33.28-64.89Q33.28-65.94 32.81-66.36Q32.34-66.78 31.08-66.88L31.08-66.88Q30.66-66.88 28.40-66.94Q26.14-66.99 20.58-66.99L20.58-66.99Q-0.63-66.99-2.31-66.67L-2.31-66.67ZM59.64-45.25Q59.22-45.25 49.66-61.74L49.66-61.74L47.35-65.83Q46.41-67.30 45.46-67.30L45.46-67.30Q45.15-67.30 44.31-66.88L44.31-66.88L39.48-63.73Q38.53-63.10 38.01-62.63Q37.48-62.16 37.48-61.74L37.48-61.74Q37.48-61.11 38.43-59.53L38.43-59.53L41.89-53.76Q52.18-36.33 54.28-32.97L54.28-32.97L44.41-4.62Q44.31-4.30 44.31-3.67L44.31-3.67Q44.31-1.68 45.57-1.36L45.57-1.36Q46.83-1.05 50.50-0.32L50.50-0.32L53.23 0.21Q54.18 0.21 54.49-0.32L54.49-0.32Q55.54-1.78 55.96-3.36L55.96-3.36Q57.75-8.40 68.04-35.02Q78.33-61.63 79.17-63.52L79.17-63.52Q79.38-63.95 79.38-64.16L79.38-64.16Q79.38-64.78 78.44-64.89L78.44-64.89L70.77-66.57Q70.45-66.67 69.93-66.67L69.93-66.67Q68.46-66.67 67.62-65.00L67.62-65.00Q66.46-62.27 64.68-57.43L64.68-57.43Q64.05-55.86 62.00-50.56Q59.95-45.25 59.64-45.25L59.64-45.25ZM121.69-42.10L121.69-45.88Q121.69-50.29 121.48-51.87L121.48-51.87Q120.85-57.85 116.23-61.90Q111.61-65.94 105.53-66.36L105.53-66.36Q100.06-66.78 94.39-66.78L94.39-66.78Q88.94-66.78 87.05-66.25L87.05-66.25Q86.31-66.15 86.05-65.78Q85.78-65.41 85.78-64.68L85.78-64.68Q85.89-62.79 85.89-34.65L85.89-34.65L86.00-2.83Q86.00-0.32 88.83-0.10L88.83-0.10L92.40-0.21Q93.55-0.21 94.08-0.10L94.08-0.10L94.92 0Q97.33 0 97.33-2.73L97.33-2.73Q97.23-5.35 97.28-7.30Q97.33-9.24 97.33-10.50L97.33-10.50Q97.44-12.18 97.44-15.64L97.44-15.64Q97.44-18.69 97.33-20.27L97.33-20.27Q97.33-21.21 97.60-21.52Q97.86-21.84 98.80-21.95L98.80-21.95Q99.75-22.05 103.32-22.31Q106.89-22.57 108.78-23.31L108.78-23.31Q114.77-25.72 118.23-30.97Q121.69-36.23 121.69-42.10L121.69-42.10ZM97.33-35.07Q97.33-48.82 97.13-53.66L97.13-53.66Q97.13-55.34 98.70-55.34L98.70-55.34Q99.02-55.34 100.91-55.34Q102.80-55.34 104.37-55.13L104.37-55.13Q107.00-54.70 109.15-52.08Q111.30-49.45 111.41-47.04L111.41-47.04Q111.41-43.99 111.04-41.74Q110.67-39.48 109.41-37.48L109.41-37.48Q107.10-33.70 101.22-33.70L101.22-33.70Q99.33-33.70 98.07-34.02L98.07-34.02Q97.86-34.13 97.60-34.44Q97.33-34.75 97.33-35.07L97.33-35.07ZM152.35-23.63Q152.46-18.16 151.25-13.28Q150.04-8.40 145.63-8.40L145.63-8.40Q142.48-8.40 140.96-10.81Q139.44-13.23 139.44-19.21L139.44-19.21Q139.44-46.30 139.54-50.29L139.54-50.29Q139.54-53.55 140.96-56.70Q142.38-59.85 146.58-59.85L146.58-59.85Q149.20-59.85 150.15-57.38Q151.09-54.91 151.31-52.66Q151.51-50.40 151.62-49.88L151.62-49.88Q151.94-48.51 152.41-48.14Q152.88-47.77 154.66-47.77L154.66-47.77L159.39-47.88Q161.28-47.88 161.65-48.46Q162.01-49.03 162.01-50.19L162.01-50.19Q162.01-50.29 162.07-50.77Q162.12-51.24 162.12-52.39L162.12-52.39Q162.12-58.80 158.71-64.36Q155.29-69.93 145.32-69.93L145.32-69.93Q135.45-69.93 132.09-63.79Q128.73-57.64 128.63-50.82L128.63-50.82L128.63-17.75Q128.63-10.81 131.09-6.30Q133.56-1.78 137.55 0.37Q141.54 2.52 146.26 2.52L146.26 2.52Q152.14 2.52 155.92-1.05Q159.70-4.62 161.44-9.34Q163.17-14.07 163.17-17.54L163.17-17.54Q163.17-18.16 163.17-21.21Q163.17-24.25 162.75-26.98L162.75-26.98Q162.75-27.30 162.38-27.67Q162.01-28.04 161.70-28.04L161.70-28.04L157.71-28.04Q154.88-28.04 153.62-27.93L153.62-27.93Q153.19-27.93 152.83-27.51Q152.46-27.09 152.46-26.77L152.46-26.77Q152.35-26.04 152.35-25.04Q152.35-24.04 152.35-23.63L152.35-23.63ZM187.11-38.22Q187.21-38.85 187.69-41.16Q188.16-43.47 188.58-43.47L188.58-43.47Q188.89-43.47 189.00-42.63L189.00-42.63L190.47-36.64Q192.25-29.92 194.98-19.74Q197.71-9.55 199.29-3.15L199.29-3.15Q199.71-1.47 200.76-0.53Q201.81 0.42 203.17 0.42L203.17 0.42Q203.49 0.42 204.54 0.21L204.54 0.21Q205.90-0.10 207.53-0.73Q209.16-1.36 209.68-1.57L209.68-1.57Q210.42-2.10 210.42-2.52L210.42-2.52Q210.21-5.14 209.89-6.19L209.89-6.19Q207.27-16.17 200.97-39.38Q194.67-62.58 193.72-65.73L193.72-65.73Q193.62-65.94 193.25-66.20Q192.88-66.47 192.57-66.47L192.57-66.47Q186.27-66.47 184.90-66.15L184.90-66.15Q184.48-66.05 183.96-65.52Q183.43-65.00 183.22-64.47L183.22-64.47Q182.38-61.95 169.78-12.07L169.78-12.07L167.79-4.41Q167.68-4.09 167.68-3.57L167.68-3.57Q167.68-2.42 168.94-1.47L168.94-1.47Q170.62-0.21 173.46-0.21L173.46-0.21Q175.77-0.10 176.50-0.26Q177.24-0.42 177.55-1.10Q177.87-1.78 178.39-3.99L178.39-3.99L187.11-38.22ZM242.97-80.95L237.40-80.64Q235.72-80.53 235.51-78.75L235.51-78.75L235.41-77.17L235.51-74.76Q235.62-73.92 235.62-72.34L235.62-72.34Q235.62-71.92 235.93-71.56Q236.25-71.19 236.56-70.98L236.56-70.98Q237.30-70.45 238.66-70.45L238.66-70.45L241.50-70.56Q242.34-70.66 244.23-70.66L244.23-70.66Q245.28-70.77 245.59-71.08Q245.91-71.40 245.80-72.45L245.80-72.45Q245.70-73.08 245.70-74.34L245.70-74.34L245.80-78.02Q245.70-79.59 245.54-80.11Q245.38-80.64 244.91-80.80Q244.44-80.95 242.97-80.95L242.97-80.95ZM221.23-77.70Q221.23-75.70 221.44-72.55L221.44-72.55Q221.55-70.88 223.33-70.66L223.33-70.66Q224.07-70.56 225.43-70.56L225.43-70.56L229.74-70.66Q230.47-70.66 231.21-71.61L231.21-71.61Q231.73-72.66 231.73-73.71L231.73-73.71L231.42-79.27Q231.42-80.22 231.16-80.53Q230.89-80.85 230.05-80.85L230.05-80.85L224.17-80.85Q222.07-80.74 221.60-80.22Q221.13-79.69 221.23-77.70L221.23-77.70ZM229.00-32.23L233.83-32.13Q239.08-32.13 242.13-32.76L242.13-32.76Q242.55-32.87 242.97-33.34Q243.39-33.81 243.49-34.23L243.49-34.23Q244.02-37.48 243.91-39.48L243.91-39.48Q243.91-42.10 242.13-42.10L242.13-42.10Q241.08-42.21 235.09-42.21L235.09-42.21Q231.10-42.21 230.26-42.10L230.26-42.10Q228.79-42.10 228.79-43.57L228.79-43.57L228.69-55.02L228.69-55.44Q228.69-56.38 229.06-56.75Q229.42-57.12 230.26-57.12L230.26-57.12L235.20-57.12Q245.91-57.12 247.38-57.43L247.38-57.43Q248.01-57.64 248.69-60.53Q249.37-63.42 249.37-65.63L249.37-65.63Q249.37-67.41 248.85-67.41L248.85-67.41L219.24-67.41Q218.61-67.41 218.19-66.94Q217.77-66.47 217.77-65.73L217.77-65.73Q217.87-65.31 218.08-30.24L218.08-30.24Q218.40-10.39 218.40-2.42L218.40-2.42Q218.40-0.42 220.29-0.21L220.29-0.21Q222.49 0.10 234.57 0.10L234.57 0.10Q244.54 0.10 247.06-0.21L247.06-0.21Q249.48-0.53 249.48-2.73L249.48-2.73Q249.48-3.67 249.58-5.04Q249.69-6.40 249.58-7.25L249.58-7.25Q249.58-8.50 249.06-9.50Q248.53-10.50 247.69-10.50L247.69-10.50L230.79-10.50Q229.95-10.50 229.58-10.81Q229.21-11.13 229.21-11.97L229.21-11.97Q228.90-23.94 228.90-28.56L228.90-28.56Q228.90-31.92 229.00-32.23L229.00-32.23ZM256.62-66.67Q255.99-66.15 255.99-62.58L255.99-62.58L256.09-57.64Q256.09-57.33 256.36-56.91Q256.62-56.49 256.83-56.49L256.83-56.49Q258.93-56.38 262.97-56.49Q267.01-56.59 267.64-56.59L267.64-56.59Q268.27-56.59 268.38-55.18Q268.48-53.76 268.48-53.23L268.48-53.23Q268.48-46.62 268.59-27.51Q268.69-8.40 268.90-2.31L268.90-2.31Q268.90 0 271.11 0L271.11 0Q275.94 0 278.35-0.10L278.35-0.10Q279.51-0.10 279.51-1.26L279.51-1.26L279.51-39.27L279.51-55.02L279.51-55.34Q279.51-56.17 280.56-56.17L280.56-56.17L284.02-56.28Q287.07-56.49 288.64-56.38L288.64-56.38Q291.69-56.38 292.11-59.11L292.11-59.11Q292.21-59.74 292.21-61.11L292.21-61.11Q292.21-61.63 292.16-62.47Q292.11-63.31 292.21-64.47L292.21-64.47L292.21-64.89Q292.21-65.94 291.74-66.36Q291.27-66.78 290.01-66.88L290.01-66.88Q289.59-66.88 287.33-66.94Q285.07-66.99 279.51-66.99L279.51-66.99Q258.30-66.99 256.62-66.67L256.62-66.67Z" fill="#000000" fontsize="105" transform="matrix(1,0,0,1,128.865,317.21500000000003)"></path></svg>